<svg width="1200" height="630" viewBox="0 0 1200 630" fill="none" xmlns="http://www.w3.org/2000/svg">
  <defs>
    <linearGradient id="bg" x1="0" y1="0" x2="1200" y2="630" gradientUnits="userSpaceOnUse">
      <stop stop-color="#020617"/>
      <stop offset="0.4" stop-color="#0B1120"/>
      <stop offset="1" stop-color="#0F172A"/>
    </linearGradient>
    <linearGradient id="g" x1="0" y1="0" x2="900" y2="360" gradientUnits="userSpaceOnUse">
      <stop stop-color="#38BDF8"/>
      <stop offset="1" stop-color="#0EA5E9"/>
    </linearGradient>
  </defs>
  <rect width="1200" height="630" fill="url(#bg)"/>
  <circle cx="980" cy="180" r="150" fill="#38BDF8" fill-opacity="0.14"/>
  <circle cx="240" cy="520" r="200" fill="#0EA5E9" fill-opacity="0.18"/>
  <g opacity="0.2"><path d="M120 500H1080" stroke="#E2E8F0" stroke-width="1"/><path d="M120 460H1080" stroke="#E2E8F0" stroke-width="1"/><path d="M120 420H1080" stroke="#E2E8F0" stroke-width="1"/><path d="M120 380H1080" stroke="#E2E8F0" stroke-width="1"/><path d="M120 340H1080" stroke="#E2E8F0" stroke-width="1"/></g>
  <rect x="112" y="104" width="976" height="422" rx="44" fill="#0F172A" fill-opacity="0.6"/>
  <text x="160" y="228" fill="#38BDF8" font-family="Arial, Helvetica, sans-serif" font-size="26" font-weight="700" letter-spacing="8">BACKEND ENGINEER</text>
  <text x="160" y="308" fill="#F8FAFC" font-family="Arial, Helvetica, sans-serif" font-size="86" font-weight="700">Mohammad Adnan</text>
  <text x="160" y="380" fill="#94A3B8" font-family="Arial, Helvetica, sans-serif" font-size="46" font-weight="500">Scalable systems • APIs • Cloud</text>
  <rect x="160" y="420" width="236" height="14" rx="7" fill="#38BDF8" fill-opacity="0.3"/>
  <rect x="160" y="420" width="156" height="14" rx="7" fill="url(#g)"/>
  <circle cx="920" cy="310" r="110" fill="url(#g)" fill-opacity="0.26"/>
  <circle cx="920" cy="310" r="56" fill="#38BDF8"/>
  <path d="M860 314C880 270 918 244 956 244C1002 244 1036 280 1036 326" stroke="#F8FAFC" stroke-width="20" stroke-linecap="round"/>
</svg>